<?xml version="1.0" encoding="UTF-8" standalone="no"?>
<!DOCTYPE svg PUBLIC "-//W3C//DTD SVG 1.1//EN"
 "http://www.w3.org/Graphics/SVG/1.1/DTD/svg11.dtd">
<!-- Generated by graphviz version 2.47.0 (20210316.0004)
 -->
<!-- Title: dependencies Pages: 1 -->
<svg width="687pt" height="211pt"
 viewBox="0.00 0.00 687.00 211.00" xmlns="http://www.w3.org/2000/svg" xmlns:xlink="http://www.w3.org/1999/xlink">
<g id="graph0" class="graph" transform="scale(1 1) rotate(0) translate(4 207)">
<title>dependencies</title>
<polygon fill="white" stroke="transparent" points="-4,4 -4,-207 683,-207 683,4 -4,4"/>
<text text-anchor="start" x="318.51" y="-42.4" font-family="Times-12" font-weight="bold" font-size="14.00">Legend</text>
<polygon fill="#ffffb3" stroke="transparent" points="105.5,-10 105.5,-30 125.5,-30 125.5,-10 105.5,-10"/>
<text text-anchor="start" x="129.13" y="-15.4" font-family="Times-12" font-size="14.00"> &#160;Declarations</text>
<polygon fill="#8dd3c7" stroke="transparent" points="218.5,-10 218.5,-30 238.5,-30 238.5,-10 218.5,-10"/>
<text text-anchor="start" x="242.23" y="-15.4" font-family="Times-12" font-size="14.00"> &#160;Module</text>
<polygon fill="#80b1d3" stroke="transparent" points="304.5,-10 304.5,-30 324.5,-30 324.5,-10 304.5,-10"/>
<text text-anchor="start" x="328.28" y="-15.4" font-family="Times-12" font-size="14.00"> &#160;Bootstrap</text>
<polygon fill="#fdb462" stroke="transparent" points="401.5,-10 401.5,-30 421.5,-30 421.5,-10 401.5,-10"/>
<text text-anchor="start" x="425.17" y="-15.4" font-family="Times-12" font-size="14.00"> &#160;Providers</text>
<polygon fill="#fb8072" stroke="transparent" points="497.5,-10 497.5,-30 517.5,-30 517.5,-10 497.5,-10"/>
<text text-anchor="start" x="521.23" y="-15.4" font-family="Times-12" font-size="14.00"> &#160;Exports</text>
<g id="clust1" class="cluster">
<title>cluster_ArticleModule</title>
<polygon fill="none" stroke="black" stroke-dasharray="1,5" points="8,-70 8,-195 671,-195 671,-70 8,-70"/>
</g>
<g id="clust3" class="cluster">
<title>cluster_ArticleModule_imports</title>
<polygon fill="none" stroke="black" points="174,-78 174,-130 663,-130 663,-78 174,-78"/>
</g>
<g id="clust6" class="cluster">
<title>cluster_ArticleModule_providers</title>
<polygon fill="none" stroke="black" points="16,-78 16,-130 166,-130 166,-78 16,-78"/>
</g>
<!-- EmailModule -->
<g id="node1" class="node">
<title>EmailModule</title>
<polygon fill="#8dd3c7" stroke="black" points="655.49,-122 652.49,-126 631.49,-126 628.49,-122 562.51,-122 562.51,-86 655.49,-86 655.49,-122"/>
<text text-anchor="middle" x="609" y="-99.8" font-family="Times,serif" font-size="14.00">EmailModule</text>
</g>
<!-- ArticleModule -->
<g id="node5" class="node">
<title>ArticleModule</title>
<polygon fill="#8dd3c7" stroke="black" points="444.42,-187 441.42,-191 420.42,-191 417.42,-187 345.58,-187 345.58,-151 444.42,-151 444.42,-187"/>
<text text-anchor="middle" x="395" y="-164.8" font-family="Times,serif" font-size="14.00">ArticleModule</text>
</g>
<!-- EmailModule&#45;&gt;ArticleModule -->
<g id="edge1" class="edge">
<title>EmailModule&#45;&gt;ArticleModule</title>
<path fill="none" stroke="black" d="M609,-122.11C609,-141.34 609,-169 609,-169 609,-169 454.36,-169 454.36,-169"/>
<polygon fill="black" stroke="black" points="454.36,-165.5 444.36,-169 454.36,-172.5 454.36,-165.5"/>
</g>
<!-- ExcelModule -->
<g id="node2" class="node">
<title>ExcelModule</title>
<polygon fill="#8dd3c7" stroke="black" points="544.92,-122 541.92,-126 520.92,-126 517.92,-122 453.08,-122 453.08,-86 544.92,-86 544.92,-122"/>
<text text-anchor="middle" x="499" y="-99.8" font-family="Times,serif" font-size="14.00">ExcelModule</text>
</g>
<!-- ExcelModule&#45;&gt;ArticleModule -->
<g id="edge2" class="edge">
<title>ExcelModule&#45;&gt;ArticleModule</title>
<path fill="none" stroke="black" d="M453.04,-104C445.42,-104 439.94,-104 439.94,-104 439.94,-104 439.94,-140.89 439.94,-140.89"/>
<polygon fill="black" stroke="black" points="436.44,-140.89 439.94,-150.89 443.44,-140.89 436.44,-140.89"/>
</g>
<!-- FileModule -->
<g id="node3" class="node">
<title>FileModule</title>
<polygon fill="#8dd3c7" stroke="black" points="435.83,-122 432.83,-126 411.83,-126 408.83,-122 354.17,-122 354.17,-86 435.83,-86 435.83,-122"/>
<text text-anchor="middle" x="395" y="-99.8" font-family="Times,serif" font-size="14.00">FileModule</text>
</g>
<!-- FileModule&#45;&gt;ArticleModule -->
<g id="edge3" class="edge">
<title>FileModule&#45;&gt;ArticleModule</title>
<path fill="none" stroke="black" d="M395,-122.11C395,-122.11 395,-140.99 395,-140.99"/>
<polygon fill="black" stroke="black" points="391.5,-140.99 395,-150.99 398.5,-140.99 391.5,-140.99"/>
</g>
<!-- PushNotificationModule -->
<g id="node4" class="node">
<title>PushNotificationModule</title>
<polygon fill="#8dd3c7" stroke="black" points="336.43,-122 333.43,-126 312.43,-126 309.43,-122 181.57,-122 181.57,-86 336.43,-86 336.43,-122"/>
<text text-anchor="middle" x="259" y="-99.8" font-family="Times,serif" font-size="14.00">PushNotificationModule</text>
</g>
<!-- PushNotificationModule&#45;&gt;ArticleModule -->
<g id="edge4" class="edge">
<title>PushNotificationModule&#45;&gt;ArticleModule</title>
<path fill="none" stroke="black" d="M336.23,-104C344.55,-104 350.06,-104 350.06,-104 350.06,-104 350.06,-140.89 350.06,-140.89"/>
<polygon fill="black" stroke="black" points="346.56,-140.89 350.06,-150.89 353.56,-140.89 346.56,-140.89"/>
</g>
<!-- ArticleService -->
<g id="node6" class="node">
<title>ArticleService</title>
<ellipse fill="#fdb462" stroke="black" cx="91" cy="-104" rx="66.61" ry="18"/>
<text text-anchor="middle" x="91" y="-99.8" font-family="Times,serif" font-size="14.00">ArticleService</text>
</g>
<!-- ArticleService&#45;&gt;ArticleModule -->
<g id="edge5" class="edge">
<title>ArticleService&#45;&gt;ArticleModule</title>
<path fill="none" stroke="black" d="M91,-122.11C91,-141.34 91,-169 91,-169 91,-169 335.48,-169 335.48,-169"/>
<polygon fill="black" stroke="black" points="335.48,-172.5 345.48,-169 335.48,-165.5 335.48,-172.5"/>
</g>
</g>
</svg>
