<?xml version="1.0" encoding="UTF-8" standalone="no"?>
<!DOCTYPE svg PUBLIC "-//W3C//DTD SVG 1.1//EN"
 "http://www.w3.org/Graphics/SVG/1.1/DTD/svg11.dtd">
<!-- Generated by graphviz version 2.47.0 (20210316.0004)
 -->
<!-- Title: dependencies Pages: 1 -->
<svg width="2173pt" height="211pt"
 viewBox="0.00 0.00 2173.00 211.00" xmlns="http://www.w3.org/2000/svg" xmlns:xlink="http://www.w3.org/1999/xlink">
<g id="graph0" class="graph" transform="scale(1 1) rotate(0) translate(4 207)">
<title>dependencies</title>
<polygon fill="white" stroke="transparent" points="-4,4 -4,-207 2169,-207 2169,4 -4,4"/>
<text text-anchor="start" x="1061.51" y="-42.4" font-family="Times-12" font-weight="bold" font-size="14.00">Legend</text>
<polygon fill="#ffffb3" stroke="transparent" points="848.5,-10 848.5,-30 868.5,-30 868.5,-10 848.5,-10"/>
<text text-anchor="start" x="872.13" y="-15.4" font-family="Times-12" font-size="14.00"> &#160;Declarations</text>
<polygon fill="#8dd3c7" stroke="transparent" points="961.5,-10 961.5,-30 981.5,-30 981.5,-10 961.5,-10"/>
<text text-anchor="start" x="985.23" y="-15.4" font-family="Times-12" font-size="14.00"> &#160;Module</text>
<polygon fill="#80b1d3" stroke="transparent" points="1047.5,-10 1047.5,-30 1067.5,-30 1067.5,-10 1047.5,-10"/>
<text text-anchor="start" x="1071.28" y="-15.4" font-family="Times-12" font-size="14.00"> &#160;Bootstrap</text>
<polygon fill="#fdb462" stroke="transparent" points="1144.5,-10 1144.5,-30 1164.5,-30 1164.5,-10 1144.5,-10"/>
<text text-anchor="start" x="1168.17" y="-15.4" font-family="Times-12" font-size="14.00"> &#160;Providers</text>
<polygon fill="#fb8072" stroke="transparent" points="1240.5,-10 1240.5,-30 1260.5,-30 1260.5,-10 1240.5,-10"/>
<text text-anchor="start" x="1264.23" y="-15.4" font-family="Times-12" font-size="14.00"> &#160;Exports</text>
<g id="clust1" class="cluster">
<title>cluster_AppModule</title>
<polygon fill="none" stroke="black" stroke-dasharray="1,5" points="8,-70 8,-195 2157,-195 2157,-70 8,-70"/>
</g>
<g id="clust6" class="cluster">
<title>cluster_AppModule_providers</title>
<polygon fill="none" stroke="black" points="16,-78 16,-130 2149,-130 2149,-78 16,-78"/>
</g>
<!-- AppService -->
<g id="node1" class="node">
<title>AppService</title>
<ellipse fill="#fdb462" stroke="black" cx="2084" cy="-104" rx="56.74" ry="18"/>
<text text-anchor="middle" x="2084" y="-99.8" font-family="Times,serif" font-size="14.00">AppService</text>
</g>
<!-- AppModule -->
<g id="node15" class="node">
<title>AppModule</title>
<polygon fill="#8dd3c7" stroke="black" points="1112.66,-187 1109.66,-191 1088.66,-191 1085.66,-187 1029.34,-187 1029.34,-151 1112.66,-151 1112.66,-187"/>
<text text-anchor="middle" x="1071" y="-164.8" font-family="Times,serif" font-size="14.00">AppModule</text>
</g>
<!-- AppService&#45;&gt;AppModule -->
<g id="edge1" class="edge">
<title>AppService&#45;&gt;AppModule</title>
<path fill="none" stroke="black" d="M2084,-122.09C2084,-145.13 2084,-182 2084,-182 2084,-182 1122.92,-182 1122.92,-182"/>
<polygon fill="black" stroke="black" points="1122.92,-178.5 1112.92,-182 1122.92,-185.5 1122.92,-178.5"/>
</g>
<!-- ArticleSearchService -->
<g id="node2" class="node">
<title>ArticleSearchService</title>
<ellipse fill="#fdb462" stroke="black" cx="1916" cy="-104" rx="93.15" ry="18"/>
<text text-anchor="middle" x="1916" y="-99.8" font-family="Times,serif" font-size="14.00">ArticleSearchService</text>
</g>
<!-- ArticleSearchService&#45;&gt;AppModule -->
<g id="edge2" class="edge">
<title>ArticleSearchService&#45;&gt;AppModule</title>
<path fill="none" stroke="black" d="M1916,-122.04C1916,-143.66 1916,-177 1916,-177 1916,-177 1122.9,-177 1122.9,-177"/>
<polygon fill="black" stroke="black" points="1122.9,-173.5 1112.9,-177 1122.9,-180.5 1122.9,-173.5"/>
</g>
<!-- ArticleService -->
<g id="node3" class="node">
<title>ArticleService</title>
<ellipse fill="#fdb462" stroke="black" cx="1738" cy="-104" rx="66.61" ry="18"/>
<text text-anchor="middle" x="1738" y="-99.8" font-family="Times,serif" font-size="14.00">ArticleService</text>
</g>
<!-- ArticleService&#45;&gt;AppModule -->
<g id="edge3" class="edge">
<title>ArticleService&#45;&gt;AppModule</title>
<path fill="none" stroke="black" d="M1738,-122.22C1738,-142.37 1738,-172 1738,-172 1738,-172 1122.72,-172 1122.72,-172"/>
<polygon fill="black" stroke="black" points="1122.72,-168.5 1112.72,-172 1122.72,-175.5 1122.72,-168.5"/>
</g>
<!-- AuthService -->
<g id="node4" class="node">
<title>AuthService</title>
<ellipse fill="#fdb462" stroke="black" cx="1594" cy="-104" rx="59.11" ry="18"/>
<text text-anchor="middle" x="1594" y="-99.8" font-family="Times,serif" font-size="14.00">AuthService</text>
</g>
<!-- AuthService&#45;&gt;AppModule -->
<g id="edge4" class="edge">
<title>AuthService&#45;&gt;AppModule</title>
<path fill="none" stroke="black" d="M1594,-122.22C1594,-140.83 1594,-167 1594,-167 1594,-167 1122.92,-167 1122.92,-167"/>
<polygon fill="black" stroke="black" points="1122.92,-163.5 1112.92,-167 1122.92,-170.5 1122.92,-163.5"/>
</g>
<!-- BasicStrategy -->
<g id="node5" class="node">
<title>BasicStrategy</title>
<ellipse fill="#fdb462" stroke="black" cx="1452" cy="-104" rx="64.84" ry="18"/>
<text text-anchor="middle" x="1452" y="-99.8" font-family="Times,serif" font-size="14.00">BasicStrategy</text>
</g>
<!-- BasicStrategy&#45;&gt;AppModule -->
<g id="edge5" class="edge">
<title>BasicStrategy&#45;&gt;AppModule</title>
<path fill="none" stroke="black" d="M1452,-122.03C1452,-139.06 1452,-162 1452,-162 1452,-162 1122.86,-162 1122.86,-162"/>
<polygon fill="black" stroke="black" points="1122.86,-158.5 1112.86,-162 1122.86,-165.5 1122.86,-158.5"/>
</g>
<!-- CronJobService -->
<g id="node6" class="node">
<title>CronJobService</title>
<ellipse fill="#fdb462" stroke="black" cx="1297" cy="-104" rx="72.93" ry="18"/>
<text text-anchor="middle" x="1297" y="-99.8" font-family="Times,serif" font-size="14.00">CronJobService</text>
</g>
<!-- CronJobService&#45;&gt;AppModule -->
<g id="edge6" class="edge">
<title>CronJobService&#45;&gt;AppModule</title>
<path fill="none" stroke="black" d="M1297,-122.24C1297,-137.57 1297,-157 1297,-157 1297,-157 1122.72,-157 1122.72,-157"/>
<polygon fill="black" stroke="black" points="1122.72,-153.5 1112.72,-157 1122.72,-160.5 1122.72,-153.5"/>
</g>
<!-- EmailService -->
<g id="node7" class="node">
<title>EmailService</title>
<ellipse fill="#fdb462" stroke="black" cx="1143" cy="-104" rx="63.12" ry="18"/>
<text text-anchor="middle" x="1143" y="-99.8" font-family="Times,serif" font-size="14.00">EmailService</text>
</g>
<!-- EmailService&#45;&gt;AppModule -->
<g id="edge7" class="edge">
<title>EmailService&#45;&gt;AppModule</title>
<path fill="none" stroke="black" d="M1096.39,-116.23C1096.39,-116.23 1096.39,-140.68 1096.39,-140.68"/>
<polygon fill="black" stroke="black" points="1092.89,-140.68 1096.39,-150.68 1099.89,-140.68 1092.89,-140.68"/>
</g>
<!-- ExcelService -->
<g id="node8" class="node">
<title>ExcelService</title>
<ellipse fill="#fdb462" stroke="black" cx="1000" cy="-104" rx="61.95" ry="18"/>
<text text-anchor="middle" x="1000" y="-99.8" font-family="Times,serif" font-size="14.00">ExcelService</text>
</g>
<!-- ExcelService&#45;&gt;AppModule -->
<g id="edge8" class="edge">
<title>ExcelService&#45;&gt;AppModule</title>
<path fill="none" stroke="black" d="M1045.57,-116.23C1045.57,-116.23 1045.57,-140.68 1045.57,-140.68"/>
<polygon fill="black" stroke="black" points="1042.07,-140.68 1045.57,-150.68 1049.07,-140.68 1042.07,-140.68"/>
</g>
<!-- FileService -->
<g id="node9" class="node">
<title>FileService</title>
<ellipse fill="#fdb462" stroke="black" cx="865" cy="-104" rx="55.03" ry="18"/>
<text text-anchor="middle" x="865" y="-99.8" font-family="Times,serif" font-size="14.00">FileService</text>
</g>
<!-- FileService&#45;&gt;AppModule -->
<g id="edge9" class="edge">
<title>FileService&#45;&gt;AppModule</title>
<path fill="none" stroke="black" d="M865,-122.24C865,-137.57 865,-157 865,-157 865,-157 1019.31,-157 1019.31,-157"/>
<polygon fill="black" stroke="black" points="1019.31,-160.5 1029.31,-157 1019.31,-153.5 1019.31,-160.5"/>
</g>
<!-- JwtStrategy -->
<g id="node10" class="node">
<title>JwtStrategy</title>
<ellipse fill="#fdb462" stroke="black" cx="735" cy="-104" rx="56.76" ry="18"/>
<text text-anchor="middle" x="735" y="-99.8" font-family="Times,serif" font-size="14.00">JwtStrategy</text>
</g>
<!-- JwtStrategy&#45;&gt;AppModule -->
<g id="edge10" class="edge">
<title>JwtStrategy&#45;&gt;AppModule</title>
<path fill="none" stroke="black" d="M735,-122.03C735,-139.06 735,-162 735,-162 735,-162 1019.12,-162 1019.12,-162"/>
<polygon fill="black" stroke="black" points="1019.12,-165.5 1029.12,-162 1019.12,-158.5 1019.12,-165.5"/>
</g>
<!-- LocalStrategy -->
<g id="node11" class="node">
<title>LocalStrategy</title>
<ellipse fill="#fdb462" stroke="black" cx="595" cy="-104" rx="65.41" ry="18"/>
<text text-anchor="middle" x="595" y="-99.8" font-family="Times,serif" font-size="14.00">LocalStrategy</text>
</g>
<!-- LocalStrategy&#45;&gt;AppModule -->
<g id="edge11" class="edge">
<title>LocalStrategy&#45;&gt;AppModule</title>
<path fill="none" stroke="black" d="M595,-122.22C595,-140.83 595,-167 595,-167 595,-167 1019.18,-167 1019.18,-167"/>
<polygon fill="black" stroke="black" points="1019.18,-170.5 1029.18,-167 1019.18,-163.5 1019.18,-170.5"/>
</g>
<!-- PushNotificationService -->
<g id="node12" class="node">
<title>PushNotificationService</title>
<ellipse fill="#fdb462" stroke="black" cx="406" cy="-104" rx="105.37" ry="18"/>
<text text-anchor="middle" x="406" y="-99.8" font-family="Times,serif" font-size="14.00">PushNotificationService</text>
</g>
<!-- PushNotificationService&#45;&gt;AppModule -->
<g id="edge12" class="edge">
<title>PushNotificationService&#45;&gt;AppModule</title>
<path fill="none" stroke="black" d="M406,-122.22C406,-142.37 406,-172 406,-172 406,-172 1019.15,-172 1019.15,-172"/>
<polygon fill="black" stroke="black" points="1019.15,-175.5 1029.15,-172 1019.15,-168.5 1019.15,-175.5"/>
</g>
<!-- SentryService -->
<g id="node13" class="node">
<title>SentryService</title>
<ellipse fill="#fdb462" stroke="black" cx="217" cy="-104" rx="65.41" ry="18"/>
<text text-anchor="middle" x="217" y="-99.8" font-family="Times,serif" font-size="14.00">SentryService</text>
</g>
<!-- SentryService&#45;&gt;AppModule -->
<g id="edge13" class="edge">
<title>SentryService&#45;&gt;AppModule</title>
<path fill="none" stroke="black" d="M217,-122.04C217,-143.66 217,-177 217,-177 217,-177 1019.23,-177 1019.23,-177"/>
<polygon fill="black" stroke="black" points="1019.23,-180.5 1029.23,-177 1019.23,-173.5 1019.23,-180.5"/>
</g>
<!-- TagService -->
<g id="node14" class="node">
<title>TagService</title>
<ellipse fill="#fdb462" stroke="black" cx="79" cy="-104" rx="55.01" ry="18"/>
<text text-anchor="middle" x="79" y="-99.8" font-family="Times,serif" font-size="14.00">TagService</text>
</g>
<!-- TagService&#45;&gt;AppModule -->
<g id="edge14" class="edge">
<title>TagService&#45;&gt;AppModule</title>
<path fill="none" stroke="black" d="M79,-122.09C79,-145.13 79,-182 79,-182 79,-182 1019.32,-182 1019.32,-182"/>
<polygon fill="black" stroke="black" points="1019.32,-185.5 1029.32,-182 1019.32,-178.5 1019.32,-185.5"/>
</g>
</g>
</svg>
