<?xml version="1.0" encoding="UTF-8" standalone="no"?>
<!DOCTYPE svg PUBLIC "-//W3C//DTD SVG 1.1//EN"
 "http://www.w3.org/Graphics/SVG/1.1/DTD/svg11.dtd">
<!-- Generated by graphviz version 2.47.0 (20210316.0004)
 -->
<!-- Title: dependencies Pages: 1 -->
<svg width="1936pt" height="211pt"
 viewBox="0.00 0.00 1936.00 211.00" xmlns="http://www.w3.org/2000/svg" xmlns:xlink="http://www.w3.org/1999/xlink">
<g id="graph0" class="graph" transform="scale(1 1) rotate(0) translate(4 207)">
<title>dependencies</title>
<polygon fill="white" stroke="transparent" points="-4,4 -4,-207 1932,-207 1932,4 -4,4"/>
<text text-anchor="start" x="943.01" y="-42.4" font-family="Times-12" font-weight="bold" font-size="14.00">Legend</text>
<polygon fill="#ffffb3" stroke="transparent" points="730,-10 730,-30 750,-30 750,-10 730,-10"/>
<text text-anchor="start" x="753.63" y="-15.4" font-family="Times-12" font-size="14.00"> &#160;Declarations</text>
<polygon fill="#8dd3c7" stroke="transparent" points="843,-10 843,-30 863,-30 863,-10 843,-10"/>
<text text-anchor="start" x="866.73" y="-15.4" font-family="Times-12" font-size="14.00"> &#160;Module</text>
<polygon fill="#80b1d3" stroke="transparent" points="929,-10 929,-30 949,-30 949,-10 929,-10"/>
<text text-anchor="start" x="952.78" y="-15.4" font-family="Times-12" font-size="14.00"> &#160;Bootstrap</text>
<polygon fill="#fdb462" stroke="transparent" points="1026,-10 1026,-30 1046,-30 1046,-10 1026,-10"/>
<text text-anchor="start" x="1049.67" y="-15.4" font-family="Times-12" font-size="14.00"> &#160;Providers</text>
<polygon fill="#fb8072" stroke="transparent" points="1122,-10 1122,-30 1142,-30 1142,-10 1122,-10"/>
<text text-anchor="start" x="1145.73" y="-15.4" font-family="Times-12" font-size="14.00"> &#160;Exports</text>
<g id="clust1" class="cluster">
<title>cluster_AppModule</title>
<polygon fill="none" stroke="black" stroke-dasharray="1,5" points="8,-70 8,-195 1920,-195 1920,-70 8,-70"/>
</g>
<g id="clust6" class="cluster">
<title>cluster_AppModule_providers</title>
<polygon fill="none" stroke="black" points="1356,-78 1356,-130 1912,-130 1912,-78 1356,-78"/>
</g>
<g id="clust3" class="cluster">
<title>cluster_AppModule_imports</title>
<polygon fill="none" stroke="black" points="16,-78 16,-130 1348,-130 1348,-78 16,-78"/>
</g>
<!-- ArticleModule -->
<g id="node1" class="node">
<title>ArticleModule</title>
<polygon fill="#8dd3c7" stroke="black" points="1340.42,-122 1337.42,-126 1316.42,-126 1313.42,-122 1241.58,-122 1241.58,-86 1340.42,-86 1340.42,-122"/>
<text text-anchor="middle" x="1291" y="-99.8" font-family="Times,serif" font-size="14.00">ArticleModule</text>
</g>
<!-- AppModule -->
<g id="node12" class="node">
<title>AppModule</title>
<polygon fill="#8dd3c7" stroke="black" points="952.66,-187 949.66,-191 928.66,-191 925.66,-187 869.34,-187 869.34,-151 952.66,-151 952.66,-187"/>
<text text-anchor="middle" x="911" y="-164.8" font-family="Times,serif" font-size="14.00">AppModule</text>
</g>
<!-- ArticleModule&#45;&gt;AppModule -->
<g id="edge1" class="edge">
<title>ArticleModule&#45;&gt;AppModule</title>
<path fill="none" stroke="black" d="M1291,-122.3C1291,-140.27 1291,-165 1291,-165 1291,-165 962.75,-165 962.75,-165"/>
<polygon fill="black" stroke="black" points="962.75,-161.5 952.75,-165 962.75,-168.5 962.75,-161.5"/>
</g>
<!-- ArticleSearchModule -->
<g id="node2" class="node">
<title>ArticleSearchModule</title>
<polygon fill="#8dd3c7" stroke="black" points="1224.01,-122 1221.01,-126 1200.01,-126 1197.01,-122 1087.99,-122 1087.99,-86 1224.01,-86 1224.01,-122"/>
<text text-anchor="middle" x="1156" y="-99.8" font-family="Times,serif" font-size="14.00">ArticleSearchModule</text>
</g>
<!-- ArticleSearchModule&#45;&gt;AppModule -->
<g id="edge2" class="edge">
<title>ArticleSearchModule&#45;&gt;AppModule</title>
<path fill="none" stroke="black" d="M1156,-122.03C1156,-138.4 1156,-160 1156,-160 1156,-160 962.84,-160 962.84,-160"/>
<polygon fill="black" stroke="black" points="962.84,-156.5 952.84,-160 962.84,-163.5 962.84,-156.5"/>
</g>
<!-- AuthModule -->
<g id="node3" class="node">
<title>AuthModule</title>
<polygon fill="#8dd3c7" stroke="black" points="1069.55,-122 1066.55,-126 1045.55,-126 1042.55,-122 982.45,-122 982.45,-86 1069.55,-86 1069.55,-122"/>
<text text-anchor="middle" x="1026" y="-99.8" font-family="Times,serif" font-size="14.00">AuthModule</text>
</g>
<!-- AuthModule&#45;&gt;AppModule -->
<g id="edge3" class="edge">
<title>AuthModule&#45;&gt;AppModule</title>
<path fill="none" stroke="black" d="M1026,-122.19C1026,-137.18 1026,-156 1026,-156 1026,-156 962.84,-156 962.84,-156"/>
<polygon fill="black" stroke="black" points="962.84,-152.5 952.84,-156 962.84,-159.5 962.84,-152.5"/>
</g>
<!-- CronJobModule -->
<g id="node4" class="node">
<title>CronJobModule</title>
<polygon fill="#8dd3c7" stroke="black" points="964.49,-122 961.49,-126 940.49,-126 937.49,-122 857.51,-122 857.51,-86 964.49,-86 964.49,-122"/>
<text text-anchor="middle" x="911" y="-99.8" font-family="Times,serif" font-size="14.00">CronJobModule</text>
</g>
<!-- CronJobModule&#45;&gt;AppModule -->
<g id="edge4" class="edge">
<title>CronJobModule&#45;&gt;AppModule</title>
<path fill="none" stroke="black" d="M911,-122.11C911,-122.11 911,-140.99 911,-140.99"/>
<polygon fill="black" stroke="black" points="907.5,-140.99 911,-150.99 914.5,-140.99 907.5,-140.99"/>
</g>
<!-- EmailModule -->
<g id="node5" class="node">
<title>EmailModule</title>
<polygon fill="#8dd3c7" stroke="black" points="839.49,-122 836.49,-126 815.49,-126 812.49,-122 746.51,-122 746.51,-86 839.49,-86 839.49,-122"/>
<text text-anchor="middle" x="793" y="-99.8" font-family="Times,serif" font-size="14.00">EmailModule</text>
</g>
<!-- EmailModule&#45;&gt;AppModule -->
<g id="edge5" class="edge">
<title>EmailModule&#45;&gt;AppModule</title>
<path fill="none" stroke="black" d="M793,-122.19C793,-137.18 793,-156 793,-156 793,-156 859.07,-156 859.07,-156"/>
<polygon fill="black" stroke="black" points="859.07,-159.5 869.07,-156 859.07,-152.5 859.07,-159.5"/>
</g>
<!-- ExcelModule -->
<g id="node6" class="node">
<title>ExcelModule</title>
<polygon fill="#8dd3c7" stroke="black" points="728.92,-122 725.92,-126 704.92,-126 701.92,-122 637.08,-122 637.08,-86 728.92,-86 728.92,-122"/>
<text text-anchor="middle" x="683" y="-99.8" font-family="Times,serif" font-size="14.00">ExcelModule</text>
</g>
<!-- ExcelModule&#45;&gt;AppModule -->
<g id="edge6" class="edge">
<title>ExcelModule&#45;&gt;AppModule</title>
<path fill="none" stroke="black" d="M683,-122.03C683,-138.4 683,-160 683,-160 683,-160 859.18,-160 859.18,-160"/>
<polygon fill="black" stroke="black" points="859.18,-163.5 869.18,-160 859.18,-156.5 859.18,-163.5"/>
</g>
<!-- FileModule -->
<g id="node7" class="node">
<title>FileModule</title>
<polygon fill="#8dd3c7" stroke="black" points="619.83,-122 616.83,-126 595.83,-126 592.83,-122 538.17,-122 538.17,-86 619.83,-86 619.83,-122"/>
<text text-anchor="middle" x="579" y="-99.8" font-family="Times,serif" font-size="14.00">FileModule</text>
</g>
<!-- FileModule&#45;&gt;AppModule -->
<g id="edge7" class="edge">
<title>FileModule&#45;&gt;AppModule</title>
<path fill="none" stroke="black" d="M579,-122.3C579,-140.27 579,-165 579,-165 579,-165 859.29,-165 859.29,-165"/>
<polygon fill="black" stroke="black" points="859.29,-168.5 869.29,-165 859.29,-161.5 859.29,-168.5"/>
</g>
<!-- PushNotificationModule -->
<g id="node8" class="node">
<title>PushNotificationModule</title>
<polygon fill="#8dd3c7" stroke="black" points="520.43,-122 517.43,-126 496.43,-126 493.43,-122 365.57,-122 365.57,-86 520.43,-86 520.43,-122"/>
<text text-anchor="middle" x="443" y="-99.8" font-family="Times,serif" font-size="14.00">PushNotificationModule</text>
</g>
<!-- PushNotificationModule&#45;&gt;AppModule -->
<g id="edge8" class="edge">
<title>PushNotificationModule&#45;&gt;AppModule</title>
<path fill="none" stroke="black" d="M443,-122.11C443,-141.34 443,-169 443,-169 443,-169 859.06,-169 859.06,-169"/>
<polygon fill="black" stroke="black" points="859.06,-172.5 869.06,-169 859.06,-165.5 859.06,-172.5"/>
</g>
<!-- SentryModule -->
<g id="node9" class="node">
<title>SentryModule</title>
<polygon fill="#8dd3c7" stroke="black" points="348.1,-122 345.1,-126 324.1,-126 321.1,-122 251.9,-122 251.9,-86 348.1,-86 348.1,-122"/>
<text text-anchor="middle" x="300" y="-99.8" font-family="Times,serif" font-size="14.00">SentryModule</text>
</g>
<!-- SentryModule&#45;&gt;AppModule -->
<g id="edge9" class="edge">
<title>SentryModule&#45;&gt;AppModule</title>
<path fill="none" stroke="black" d="M300,-122.03C300,-142.77 300,-174 300,-174 300,-174 859,-174 859,-174"/>
<polygon fill="black" stroke="black" points="859,-177.5 869,-174 859,-170.5 859,-177.5"/>
</g>
<!-- TagGQLModule -->
<g id="node10" class="node">
<title>TagGQLModule</title>
<polygon fill="#8dd3c7" stroke="black" points="234.08,-122 231.08,-126 210.08,-126 207.08,-122 123.92,-122 123.92,-86 234.08,-86 234.08,-122"/>
<text text-anchor="middle" x="179" y="-99.8" font-family="Times,serif" font-size="14.00">TagGQLModule</text>
</g>
<!-- TagGQLModule&#45;&gt;AppModule -->
<g id="edge10" class="edge">
<title>TagGQLModule&#45;&gt;AppModule</title>
<path fill="none" stroke="black" d="M179,-122.29C179,-144.21 179,-178 179,-178 179,-178 859.28,-178 859.28,-178"/>
<polygon fill="black" stroke="black" points="859.28,-181.5 869.28,-178 859.28,-174.5 859.28,-181.5"/>
</g>
<!-- TagModule -->
<g id="node11" class="node">
<title>TagModule</title>
<polygon fill="#8dd3c7" stroke="black" points="105.82,-122 102.82,-126 81.82,-126 78.82,-122 24.18,-122 24.18,-86 105.82,-86 105.82,-122"/>
<text text-anchor="middle" x="65" y="-99.8" font-family="Times,serif" font-size="14.00">TagModule</text>
</g>
<!-- TagModule&#45;&gt;AppModule -->
<g id="edge11" class="edge">
<title>TagModule&#45;&gt;AppModule</title>
<path fill="none" stroke="black" d="M65,-122.32C65,-145.66 65,-183 65,-183 65,-183 859.34,-183 859.34,-183"/>
<polygon fill="black" stroke="black" points="859.34,-186.5 869.34,-183 859.34,-179.5 859.34,-186.5"/>
</g>
<!-- AppService -->
<g id="node13" class="node">
<title>AppService</title>
<ellipse fill="#fdb462" stroke="black" cx="1847" cy="-104" rx="56.74" ry="18"/>
<text text-anchor="middle" x="1847" y="-99.8" font-family="Times,serif" font-size="14.00">AppService</text>
</g>
<!-- AppService&#45;&gt;AppModule -->
<g id="edge12" class="edge">
<title>AppService&#45;&gt;AppModule</title>
<path fill="none" stroke="black" d="M1847,-122.32C1847,-145.66 1847,-183 1847,-183 1847,-183 962.73,-183 962.73,-183"/>
<polygon fill="black" stroke="black" points="962.73,-179.5 952.73,-183 962.73,-186.5 962.73,-179.5"/>
</g>
<!-- BasicStrategy -->
<g id="node14" class="node">
<title>BasicStrategy</title>
<ellipse fill="#fdb462" stroke="black" cx="1708" cy="-104" rx="64.84" ry="18"/>
<text text-anchor="middle" x="1708" y="-99.8" font-family="Times,serif" font-size="14.00">BasicStrategy</text>
</g>
<!-- BasicStrategy&#45;&gt;AppModule -->
<g id="edge13" class="edge">
<title>BasicStrategy&#45;&gt;AppModule</title>
<path fill="none" stroke="black" d="M1708,-122.29C1708,-144.21 1708,-178 1708,-178 1708,-178 962.73,-178 962.73,-178"/>
<polygon fill="black" stroke="black" points="962.73,-174.5 952.73,-178 962.73,-181.5 962.73,-174.5"/>
</g>
<!-- JwtStrategy -->
<g id="node15" class="node">
<title>JwtStrategy</title>
<ellipse fill="#fdb462" stroke="black" cx="1569" cy="-104" rx="56.76" ry="18"/>
<text text-anchor="middle" x="1569" y="-99.8" font-family="Times,serif" font-size="14.00">JwtStrategy</text>
</g>
<!-- JwtStrategy&#45;&gt;AppModule -->
<g id="edge14" class="edge">
<title>JwtStrategy&#45;&gt;AppModule</title>
<path fill="none" stroke="black" d="M1569,-122.03C1569,-142.77 1569,-174 1569,-174 1569,-174 962.66,-174 962.66,-174"/>
<polygon fill="black" stroke="black" points="962.66,-170.5 952.66,-174 962.66,-177.5 962.66,-170.5"/>
</g>
<!-- LocalStrategy -->
<g id="node16" class="node">
<title>LocalStrategy</title>
<ellipse fill="#fdb462" stroke="black" cx="1429" cy="-104" rx="65.41" ry="18"/>
<text text-anchor="middle" x="1429" y="-99.8" font-family="Times,serif" font-size="14.00">LocalStrategy</text>
</g>
<!-- LocalStrategy&#45;&gt;AppModule -->
<g id="edge15" class="edge">
<title>LocalStrategy&#45;&gt;AppModule</title>
<path fill="none" stroke="black" d="M1429,-122.11C1429,-141.34 1429,-169 1429,-169 1429,-169 962.95,-169 962.95,-169"/>
<polygon fill="black" stroke="black" points="962.95,-165.5 952.95,-169 962.95,-172.5 962.95,-165.5"/>
</g>
</g>
</svg>
