<?xml version="1.0" encoding="UTF-8" standalone="no"?>
<!DOCTYPE svg PUBLIC "-//W3C//DTD SVG 1.1//EN"
 "http://www.w3.org/Graphics/SVG/1.1/DTD/svg11.dtd">
<!-- Generated by graphviz version 2.47.0 (20210316.0004)
 -->
<!-- Title: dependencies Pages: 1 -->
<svg width="504pt" height="211pt"
 viewBox="0.00 0.00 504.00 211.00" xmlns="http://www.w3.org/2000/svg" xmlns:xlink="http://www.w3.org/1999/xlink">
<g id="graph0" class="graph" transform="scale(1 1) rotate(0) translate(4 207)">
<title>dependencies</title>
<polygon fill="white" stroke="transparent" points="-4,4 -4,-207 500,-207 500,4 -4,4"/>
<text text-anchor="start" x="227.01" y="-42.4" font-family="Times-12" font-weight="bold" font-size="14.00">Legend</text>
<polygon fill="#ffffb3" stroke="transparent" points="14,-10 14,-30 34,-30 34,-10 14,-10"/>
<text text-anchor="start" x="37.63" y="-15.4" font-family="Times-12" font-size="14.00"> &#160;Declarations</text>
<polygon fill="#8dd3c7" stroke="transparent" points="127,-10 127,-30 147,-30 147,-10 127,-10"/>
<text text-anchor="start" x="150.73" y="-15.4" font-family="Times-12" font-size="14.00"> &#160;Module</text>
<polygon fill="#80b1d3" stroke="transparent" points="213,-10 213,-30 233,-30 233,-10 213,-10"/>
<text text-anchor="start" x="236.78" y="-15.4" font-family="Times-12" font-size="14.00"> &#160;Bootstrap</text>
<polygon fill="#fdb462" stroke="transparent" points="310,-10 310,-30 330,-30 330,-10 310,-10"/>
<text text-anchor="start" x="333.67" y="-15.4" font-family="Times-12" font-size="14.00"> &#160;Providers</text>
<polygon fill="#fb8072" stroke="transparent" points="406,-10 406,-30 426,-30 426,-10 406,-10"/>
<text text-anchor="start" x="429.73" y="-15.4" font-family="Times-12" font-size="14.00"> &#160;Exports</text>
<g id="clust1" class="cluster">
<title>cluster_CronJobModule</title>
<polygon fill="none" stroke="black" stroke-dasharray="1,5" points="70,-70 70,-195 426,-195 426,-70 70,-70"/>
</g>
<g id="clust3" class="cluster">
<title>cluster_CronJobModule_imports</title>
<polygon fill="none" stroke="black" points="248,-78 248,-130 418,-130 418,-78 248,-78"/>
</g>
<g id="clust6" class="cluster">
<title>cluster_CronJobModule_providers</title>
<polygon fill="none" stroke="black" points="78,-78 78,-130 240,-130 240,-78 78,-78"/>
</g>
<!-- PushNotificationModule -->
<g id="node1" class="node">
<title>PushNotificationModule</title>
<polygon fill="#8dd3c7" stroke="black" points="410.43,-122 407.43,-126 386.43,-126 383.43,-122 255.57,-122 255.57,-86 410.43,-86 410.43,-122"/>
<text text-anchor="middle" x="333" y="-99.8" font-family="Times,serif" font-size="14.00">PushNotificationModule</text>
</g>
<!-- CronJobModule -->
<g id="node2" class="node">
<title>CronJobModule</title>
<polygon fill="#8dd3c7" stroke="black" points="299.49,-187 296.49,-191 275.49,-191 272.49,-187 192.51,-187 192.51,-151 299.49,-151 299.49,-187"/>
<text text-anchor="middle" x="246" y="-164.8" font-family="Times,serif" font-size="14.00">CronJobModule</text>
</g>
<!-- PushNotificationModule&#45;&gt;CronJobModule -->
<g id="edge1" class="edge">
<title>PushNotificationModule&#45;&gt;CronJobModule</title>
<path fill="none" stroke="black" d="M277.64,-122.11C277.64,-122.11 277.64,-140.99 277.64,-140.99"/>
<polygon fill="black" stroke="black" points="274.14,-140.99 277.64,-150.99 281.14,-140.99 274.14,-140.99"/>
</g>
<!-- CronJobService -->
<g id="node3" class="node">
<title>CronJobService</title>
<ellipse fill="#fdb462" stroke="black" cx="159" cy="-104" rx="72.93" ry="18"/>
<text text-anchor="middle" x="159" y="-99.8" font-family="Times,serif" font-size="14.00">CronJobService</text>
</g>
<!-- CronJobService&#45;&gt;CronJobModule -->
<g id="edge2" class="edge">
<title>CronJobService&#45;&gt;CronJobModule</title>
<path fill="none" stroke="black" d="M212.11,-116.53C212.11,-116.53 212.11,-140.85 212.11,-140.85"/>
<polygon fill="black" stroke="black" points="208.61,-140.85 212.11,-150.85 215.61,-140.85 208.61,-140.85"/>
</g>
</g>
</svg>
