<?xml version="1.0" encoding="UTF-8" standalone="no"?>
<!DOCTYPE svg PUBLIC "-//W3C//DTD SVG 1.1//EN"
 "http://www.w3.org/Graphics/SVG/1.1/DTD/svg11.dtd">
<!-- Generated by graphviz version 2.47.0 (20210316.0004)
 -->
<!-- Title: dependencies Pages: 1 -->
<svg width="1303pt" height="211pt"
 viewBox="0.00 0.00 1303.00 211.00" xmlns="http://www.w3.org/2000/svg" xmlns:xlink="http://www.w3.org/1999/xlink">
<g id="graph0" class="graph" transform="scale(1 1) rotate(0) translate(4 207)">
<title>dependencies</title>
<polygon fill="white" stroke="transparent" points="-4,4 -4,-207 1299,-207 1299,4 -4,4"/>
<text text-anchor="start" x="626.51" y="-42.4" font-family="Times-12" font-weight="bold" font-size="14.00">Legend</text>
<polygon fill="#ffffb3" stroke="transparent" points="413.5,-10 413.5,-30 433.5,-30 433.5,-10 413.5,-10"/>
<text text-anchor="start" x="437.13" y="-15.4" font-family="Times-12" font-size="14.00"> &#160;Declarations</text>
<polygon fill="#8dd3c7" stroke="transparent" points="526.5,-10 526.5,-30 546.5,-30 546.5,-10 526.5,-10"/>
<text text-anchor="start" x="550.23" y="-15.4" font-family="Times-12" font-size="14.00"> &#160;Module</text>
<polygon fill="#80b1d3" stroke="transparent" points="612.5,-10 612.5,-30 632.5,-30 632.5,-10 612.5,-10"/>
<text text-anchor="start" x="636.28" y="-15.4" font-family="Times-12" font-size="14.00"> &#160;Bootstrap</text>
<polygon fill="#fdb462" stroke="transparent" points="709.5,-10 709.5,-30 729.5,-30 729.5,-10 709.5,-10"/>
<text text-anchor="start" x="733.17" y="-15.4" font-family="Times-12" font-size="14.00"> &#160;Providers</text>
<polygon fill="#fb8072" stroke="transparent" points="805.5,-10 805.5,-30 825.5,-30 825.5,-10 805.5,-10"/>
<text text-anchor="start" x="829.23" y="-15.4" font-family="Times-12" font-size="14.00"> &#160;Exports</text>
<g id="clust1" class="cluster">
<title>cluster_AppModule</title>
<polygon fill="none" stroke="black" stroke-dasharray="1,5" points="8,-70 8,-195 1287,-195 1287,-70 8,-70"/>
</g>
<g id="clust6" class="cluster">
<title>cluster_AppModule_providers</title>
<polygon fill="none" stroke="black" points="16,-78 16,-130 1279,-130 1279,-78 16,-78"/>
</g>
<!-- AppService -->
<g id="node1" class="node">
<title>AppService</title>
<ellipse fill="#fdb462" stroke="black" cx="1214" cy="-104" rx="56.74" ry="18"/>
<text text-anchor="middle" x="1214" y="-99.8" font-family="Times,serif" font-size="14.00">AppService</text>
</g>
<!-- AppModule -->
<g id="node9" class="node">
<title>AppModule</title>
<polygon fill="#8dd3c7" stroke="black" points="693.66,-187 690.66,-191 669.66,-191 666.66,-187 610.34,-187 610.34,-151 693.66,-151 693.66,-187"/>
<text text-anchor="middle" x="652" y="-164.8" font-family="Times,serif" font-size="14.00">AppModule</text>
</g>
<!-- AppService&#45;&gt;AppModule -->
<g id="edge1" class="edge">
<title>AppService&#45;&gt;AppModule</title>
<path fill="none" stroke="black" d="M1214,-122.29C1214,-144.21 1214,-178 1214,-178 1214,-178 703.78,-178 703.78,-178"/>
<polygon fill="black" stroke="black" points="703.78,-174.5 693.78,-178 703.78,-181.5 703.78,-174.5"/>
</g>
<!-- ArticleSearchService -->
<g id="node2" class="node">
<title>ArticleSearchService</title>
<ellipse fill="#fdb462" stroke="black" cx="1046" cy="-104" rx="93.15" ry="18"/>
<text text-anchor="middle" x="1046" y="-99.8" font-family="Times,serif" font-size="14.00">ArticleSearchService</text>
</g>
<!-- ArticleSearchService&#45;&gt;AppModule -->
<g id="edge2" class="edge">
<title>ArticleSearchService&#45;&gt;AppModule</title>
<path fill="none" stroke="black" d="M1046,-122.11C1046,-141.34 1046,-169 1046,-169 1046,-169 703.79,-169 703.79,-169"/>
<polygon fill="black" stroke="black" points="703.79,-165.5 693.79,-169 703.79,-172.5 703.79,-165.5"/>
</g>
<!-- ArticleService -->
<g id="node3" class="node">
<title>ArticleService</title>
<ellipse fill="#fdb462" stroke="black" cx="868" cy="-104" rx="66.61" ry="18"/>
<text text-anchor="middle" x="868" y="-99.8" font-family="Times,serif" font-size="14.00">ArticleService</text>
</g>
<!-- ArticleService&#45;&gt;AppModule -->
<g id="edge3" class="edge">
<title>ArticleService&#45;&gt;AppModule</title>
<path fill="none" stroke="black" d="M868,-122.03C868,-138.4 868,-160 868,-160 868,-160 703.9,-160 703.9,-160"/>
<polygon fill="black" stroke="black" points="703.9,-156.5 693.9,-160 703.9,-163.5 703.9,-156.5"/>
</g>
<!-- EmailService -->
<g id="node4" class="node">
<title>EmailService</title>
<ellipse fill="#fdb462" stroke="black" cx="720" cy="-104" rx="63.12" ry="18"/>
<text text-anchor="middle" x="720" y="-99.8" font-family="Times,serif" font-size="14.00">EmailService</text>
</g>
<!-- EmailService&#45;&gt;AppModule -->
<g id="edge4" class="edge">
<title>EmailService&#45;&gt;AppModule</title>
<path fill="none" stroke="black" d="M675.39,-116.84C675.39,-116.84 675.39,-140.52 675.39,-140.52"/>
<polygon fill="black" stroke="black" points="671.89,-140.52 675.39,-150.52 678.89,-140.52 671.89,-140.52"/>
</g>
<!-- FileService -->
<g id="node5" class="node">
<title>FileService</title>
<ellipse fill="#fdb462" stroke="black" cx="584" cy="-104" rx="55.03" ry="18"/>
<text text-anchor="middle" x="584" y="-99.8" font-family="Times,serif" font-size="14.00">FileService</text>
</g>
<!-- FileService&#45;&gt;AppModule -->
<g id="edge5" class="edge">
<title>FileService&#45;&gt;AppModule</title>
<path fill="none" stroke="black" d="M624.59,-116.23C624.59,-116.23 624.59,-140.68 624.59,-140.68"/>
<polygon fill="black" stroke="black" points="621.09,-140.68 624.59,-150.68 628.09,-140.68 621.09,-140.68"/>
</g>
<!-- PushNotificationService -->
<g id="node6" class="node">
<title>PushNotificationService</title>
<ellipse fill="#fdb462" stroke="black" cx="406" cy="-104" rx="105.37" ry="18"/>
<text text-anchor="middle" x="406" y="-99.8" font-family="Times,serif" font-size="14.00">PushNotificationService</text>
</g>
<!-- PushNotificationService&#45;&gt;AppModule -->
<g id="edge6" class="edge">
<title>PushNotificationService&#45;&gt;AppModule</title>
<path fill="none" stroke="black" d="M406,-122.03C406,-138.4 406,-160 406,-160 406,-160 600.27,-160 600.27,-160"/>
<polygon fill="black" stroke="black" points="600.27,-163.5 610.27,-160 600.27,-156.5 600.27,-163.5"/>
</g>
<!-- SentryService -->
<g id="node7" class="node">
<title>SentryService</title>
<ellipse fill="#fdb462" stroke="black" cx="217" cy="-104" rx="65.41" ry="18"/>
<text text-anchor="middle" x="217" y="-99.8" font-family="Times,serif" font-size="14.00">SentryService</text>
</g>
<!-- SentryService&#45;&gt;AppModule -->
<g id="edge7" class="edge">
<title>SentryService&#45;&gt;AppModule</title>
<path fill="none" stroke="black" d="M217,-122.11C217,-141.34 217,-169 217,-169 217,-169 600.29,-169 600.29,-169"/>
<polygon fill="black" stroke="black" points="600.29,-172.5 610.29,-169 600.29,-165.5 600.29,-172.5"/>
</g>
<!-- TagService -->
<g id="node8" class="node">
<title>TagService</title>
<ellipse fill="#fdb462" stroke="black" cx="79" cy="-104" rx="55.01" ry="18"/>
<text text-anchor="middle" x="79" y="-99.8" font-family="Times,serif" font-size="14.00">TagService</text>
</g>
<!-- TagService&#45;&gt;AppModule -->
<g id="edge8" class="edge">
<title>TagService&#45;&gt;AppModule</title>
<path fill="none" stroke="black" d="M79,-122.29C79,-144.21 79,-178 79,-178 79,-178 600.33,-178 600.33,-178"/>
<polygon fill="black" stroke="black" points="600.33,-181.5 610.33,-178 600.33,-174.5 600.33,-181.5"/>
</g>
</g>
</svg>
